<svg width="36" height="36" viewBox="0 0 36 36" fill="none" xmlns="http://www.w3.org/2000/svg">
<g id="flash">
<g id="Group">
<path id="Vector" fill-rule="evenodd" clip-rule="evenodd" d="M19.8479 2.03997C20.7959 0.902967 22.6424 1.67997 22.4924 3.15297L21.4334 13.5H29.9999C30.2849 13.5001 30.564 13.5814 30.8045 13.7344C31.045 13.8874 31.2369 14.1057 31.3578 14.3638C31.4787 14.6219 31.5235 14.9092 31.487 15.1918C31.4506 15.4745 31.3343 15.741 31.1519 15.96L16.1519 33.96C15.2039 35.097 13.3574 34.32 13.5074 32.847L14.5664 22.5H5.99993C5.71491 22.4999 5.43581 22.4185 5.19533 22.2656C4.95485 22.1126 4.76294 21.8942 4.64206 21.6361C4.52119 21.378 4.47635 21.0908 4.51281 20.8081C4.54927 20.5254 4.66551 20.259 4.84793 20.04L19.8479 2.03997Z" fill="white"/>
</g>
</g>
</svg>
