<svg width="26" height="24" viewBox="0 0 26 24" fill="none" xmlns="http://www.w3.org/2000/svg">
<g id="Search Icon">
<path id="Vector" d="M20.6163 21L13.9896 14.7C13.4637 15.1 12.8589 15.4167 12.1751 15.65C11.4914 15.8833 10.7639 16 9.99255 16C8.08169 16 6.46464 15.3707 5.14141 14.112C3.81818 12.8533 3.15622 11.316 3.15552 9.5C3.15482 7.684 3.81678 6.14667 5.14141 4.888C6.46605 3.62933 8.08309 3 9.99255 3C11.902 3 13.5194 3.62933 14.8447 4.888C16.1701 6.14667 16.8317 7.684 16.8296 9.5C16.8296 10.2333 16.7069 10.925 16.4614 11.575C16.216 12.225 15.8829 12.8 15.4622 13.3L22.0888 19.6L20.6163 21ZM9.99255 14C11.3074 14 12.4251 13.5627 13.3459 12.688C14.2666 11.8133 14.7266 10.7507 14.7259 9.5C14.7252 8.24933 14.2652 7.187 13.3459 6.313C12.4265 5.439 11.3088 5.00133 9.99255 5C8.67634 4.99867 7.55892 5.43633 6.6403 6.313C5.72169 7.18967 5.26133 8.252 5.25922 9.5C5.25712 10.748 5.71748 11.8107 6.6403 12.688C7.56313 13.5653 8.68054 14.0027 9.99255 14Z" fill="black" fill-opacity="0.5"/>
</g>
</svg>
