<svg width="24" height="24" viewBox="0 0 24 24" fill="none" xmlns="http://www.w3.org/2000/svg">
<g id="ic:round-warning">
<path id="Vector" d="M2.00137 20.0075H17.0614C18.6014 20.0075 19.5614 18.3375 18.7914 17.0075L11.2614 3.9975C10.4914 2.6675 8.57137 2.6675 7.80137 3.9975L0.271371 17.0075C-0.498629 18.3375 0.461371 20.0075 2.00137 20.0075ZM9.53137 13.0075C8.98137 13.0075 8.53137 12.5575 8.53137 12.0075V10.0075C8.53137 9.4575 8.98137 9.0075 9.53137 9.0075C10.0814 9.0075 10.5314 9.4575 10.5314 10.0075V12.0075C10.5314 12.5575 10.0814 13.0075 9.53137 13.0075ZM10.5314 17.0075H8.53137V15.0075H10.5314V17.0075Z" fill="#FF5050"/>
</g>
</svg>
